<svg width="34" height="18" viewBox="0 0 34 18" fill="none" xmlns="http://www.w3.org/2000/svg">
<path d="M32.4844 0.4375C32.8008 0.4375 33.1172 0.595703 33.3809 0.806641C33.5918 1.07031 33.75 1.38672 33.75 1.70312V16.0469C33.75 16.416 33.5918 16.7324 33.3809 16.9434C33.1172 17.207 32.8008 17.3125 32.4844 17.3125H1.26562C0.896484 17.3125 0.580078 17.207 0.369141 16.9434C0.105469 16.7324 0 16.416 0 16.0469V1.70312C0 1.38672 0.105469 1.07031 0.369141 0.806641C0.580078 0.595703 0.896484 0.4375 1.26562 0.4375H32.4844ZM12.2871 13.9375C12.498 13.9375 12.6562 13.8848 12.8145 13.6738C12.9199 13.5156 12.9727 13.3047 12.9199 13.0938L9.86133 4.23438C9.75586 3.9707 9.59766 3.8125 9.28125 3.8125H7.59375C7.27734 3.8125 7.06641 3.9707 7.01367 4.23438L3.95508 13.0938C3.84961 13.3047 3.90234 13.5156 4.06055 13.6738C4.16602 13.8848 4.37695 13.9375 4.58789 13.9375H5.74805C5.85352 13.9375 6.01172 13.9375 6.11719 13.832C6.22266 13.7266 6.32812 13.6211 6.38086 13.4629L6.85547 11.8281H10.0195L10.4941 13.4629C10.5996 13.7793 10.8105 13.9375 11.127 13.9375H12.2871ZM31.6406 15.2031V2.54688H16.875V15.2031H31.6406ZM8.85938 7.87305C8.75391 7.45117 8.5957 6.87109 8.4375 6.13281L8.01562 7.87305L7.43555 9.82422H9.43945L8.85938 7.87305ZM18.9844 6.76562C18.9844 6.97656 19.0371 7.13477 19.1426 7.24023C19.248 7.3457 19.4062 7.39844 19.6172 7.39844H25.4707C25.1016 8.08398 24.627 8.76953 24.0996 9.45508C23.7305 9.0332 23.4141 8.61133 23.1504 8.18945C23.0449 8.08398 22.8867 7.97852 22.7285 7.92578C22.5703 7.92578 22.4121 7.92578 22.3066 7.97852L21.5684 8.40039C21.3574 8.50586 21.252 8.66406 21.252 8.82227C21.1992 9.0332 21.252 9.19141 21.3574 9.29688C21.6738 9.87695 22.0957 10.4043 22.623 10.9316C22.0957 11.3535 21.6211 11.7227 21.0938 12.0391C20.9355 12.1445 20.8301 12.3027 20.8301 12.4609C20.7773 12.6191 20.7773 12.7773 20.8828 12.8828L21.3047 13.6211C21.3574 13.7793 21.4629 13.8848 21.6738 13.9375C21.832 13.9902 21.9902 13.9375 22.2012 13.832C22.834 13.4102 23.4668 12.9355 24.0996 12.4082C24.6797 12.9883 25.2598 13.4629 25.8926 13.832C26.0508 13.9375 26.209 13.9902 26.4199 13.9375C26.5781 13.8848 26.6836 13.7793 26.7891 13.6211L27.2109 12.8828C27.3164 12.7773 27.3164 12.6191 27.2637 12.4609C27.2109 12.3027 27.1055 12.1445 27 12.0391C26.5254 11.7227 26.0508 11.3535 25.5762 10.9316L25.7871 10.668C26.6836 9.61328 27.3164 8.50586 27.7383 7.39844H28.4766C28.6348 7.39844 28.793 7.3457 28.8984 7.24023C29.0039 7.13477 29.1094 6.97656 29.1094 6.76562V5.92188C29.1094 5.76367 29.0039 5.60547 28.8984 5.5C28.793 5.39453 28.6348 5.28906 28.4766 5.28906H25.1016V4.44531C25.1016 4.28711 24.9961 4.12891 24.8906 4.02344C24.7852 3.91797 24.627 3.8125 24.4688 3.8125H23.625C23.4141 3.8125 23.2559 3.91797 23.1504 4.02344C23.0449 4.12891 22.9922 4.28711 22.9922 4.44531V5.28906H19.6172C19.4062 5.28906 19.248 5.39453 19.1426 5.5C19.0371 5.60547 18.9844 5.76367 18.9844 5.92188V6.76562Z" fill="black"/>
</svg>
