<svg width="105" height="24" viewBox="0 0 105 24" fill="none" xmlns="http://www.w3.org/2000/svg">
<circle cx="12" cy="12" r="12" fill="#FF0C0C"/>
<path d="M16.6668 9.5L10.2502 15.9167L7.3335 13" stroke="white" stroke-width="2" stroke-linecap="round" stroke-linejoin="round"/>
<path d="M38.7935 17H37.6495C37.5212 17 37.4148 16.9688 37.3305 16.9065C37.2498 16.8405 37.1912 16.7598 37.1545 16.6645L36.5605 15.042H33.266L32.672 16.6645C32.6427 16.7488 32.584 16.8258 32.496 16.8955C32.4117 16.9652 32.3072 17 32.1825 17H31.033L34.157 9.047H35.6695L38.7935 17ZM33.6455 13.997H36.181L35.213 11.3515C35.169 11.2342 35.1195 11.0967 35.0645 10.939C35.0132 10.7777 34.9618 10.6035 34.9105 10.4165C34.8592 10.6035 34.8078 10.7777 34.7565 10.939C34.7088 11.1003 34.6612 11.2415 34.6135 11.3625L33.6455 13.997ZM41.1416 14.2005V17H39.6621V9.047H42.2526C42.7842 9.047 43.2444 9.10933 43.6331 9.234C44.0217 9.35867 44.3426 9.53283 44.5956 9.7565C44.8486 9.98017 45.0356 10.2478 45.1566 10.5595C45.2776 10.8712 45.3381 11.2122 45.3381 11.5825C45.3381 11.9675 45.2739 12.3213 45.1456 12.644C45.0172 12.963 44.8247 13.238 44.5681 13.469C44.3114 13.7 43.9906 13.8797 43.6056 14.008C43.2206 14.1363 42.7696 14.2005 42.2526 14.2005H41.1416ZM41.1416 13.0455H42.2526C42.5239 13.0455 42.7604 13.0125 42.9621 12.9465C43.1637 12.8768 43.3306 12.7797 43.4626 12.655C43.5946 12.5267 43.6936 12.3727 43.7596 12.193C43.8256 12.0097 43.8586 11.8062 43.8586 11.5825C43.8586 11.3698 43.8256 11.1773 43.7596 11.005C43.6936 10.8327 43.5946 10.686 43.4626 10.565C43.3306 10.444 43.1637 10.3523 42.9621 10.29C42.7604 10.224 42.5239 10.191 42.2526 10.191H41.1416V13.0455ZM48.0166 14.2005V17H46.5371V9.047H49.1276C49.6592 9.047 50.1194 9.10933 50.5081 9.234C50.8967 9.35867 51.2176 9.53283 51.4706 9.7565C51.7236 9.98017 51.9106 10.2478 52.0316 10.5595C52.1526 10.8712 52.2131 11.2122 52.2131 11.5825C52.2131 11.9675 52.1489 12.3213 52.0206 12.644C51.8922 12.963 51.6997 13.238 51.4431 13.469C51.1864 13.7 50.8656 13.8797 50.4806 14.008C50.0956 14.1363 49.6446 14.2005 49.1276 14.2005H48.0166ZM48.0166 13.0455H49.1276C49.3989 13.0455 49.6354 13.0125 49.8371 12.9465C50.0387 12.8768 50.2056 12.7797 50.3376 12.655C50.4696 12.5267 50.5686 12.3727 50.6346 12.193C50.7006 12.0097 50.7336 11.8062 50.7336 11.5825C50.7336 11.3698 50.7006 11.1773 50.6346 11.005C50.5686 10.8327 50.4696 10.686 50.3376 10.565C50.2056 10.444 50.0387 10.3523 49.8371 10.29C49.6354 10.224 49.3989 10.191 49.1276 10.191H48.0166V13.0455ZM54.8421 15.779H58.0266V17H53.3626V9.047H54.8421V15.779ZM61.3356 13.909V17H59.8561V13.909L56.9576 9.047H58.2611C58.3894 9.047 58.4903 9.07817 58.5636 9.1405C58.6406 9.20283 58.7048 9.28167 58.7561 9.377L60.2136 12.0335C60.2979 12.1912 60.3713 12.3415 60.4336 12.4845C60.4959 12.6238 60.5528 12.7613 60.6041 12.897C60.6518 12.7577 60.7049 12.6183 60.7636 12.479C60.8259 12.336 60.8993 12.1875 60.9836 12.0335L62.4301 9.377C62.4704 9.29633 62.5309 9.22117 62.6116 9.1515C62.6923 9.08183 62.7949 9.047 62.9196 9.047H64.2286L61.3356 13.909ZM72.5903 15.1245C72.671 15.1245 72.7406 15.1557 72.7993 15.218L73.3823 15.8505C73.0596 16.2502 72.6618 16.5563 72.1888 16.769C71.7195 16.9817 71.1548 17.088 70.4948 17.088C69.9045 17.088 69.3728 16.9872 68.8998 16.7855C68.4305 16.5838 68.029 16.3033 67.6953 15.944C67.3616 15.5847 67.105 15.1557 66.9253 14.657C66.7493 14.1583 66.6613 13.6138 66.6613 13.0235C66.6613 12.4258 66.7603 11.8795 66.9583 11.3845C67.1563 10.8858 67.435 10.4568 67.7943 10.0975C68.1536 9.73817 68.5826 9.4595 69.0813 9.2615C69.5836 9.05983 70.1373 8.959 70.7423 8.959C71.3326 8.959 71.8478 9.05433 72.2878 9.245C72.7315 9.432 73.111 9.68133 73.4263 9.993L72.9313 10.6805C72.902 10.7245 72.8635 10.763 72.8158 10.796C72.7718 10.829 72.7095 10.8455 72.6288 10.8455C72.5445 10.8455 72.4583 10.8125 72.3703 10.7465C72.2823 10.6805 72.1705 10.609 72.0348 10.532C71.8991 10.455 71.7268 10.3835 71.5178 10.3175C71.3125 10.2515 71.0503 10.2185 70.7313 10.2185C70.3573 10.2185 70.0126 10.2845 69.6973 10.4165C69.3856 10.5448 69.1161 10.73 68.8888 10.972C68.6651 11.214 68.4891 11.5092 68.3608 11.8575C68.2361 12.2022 68.1738 12.5908 68.1738 13.0235C68.1738 13.4708 68.2361 13.8687 68.3608 14.217C68.4891 14.5653 68.6615 14.8587 68.8778 15.097C69.0941 15.3353 69.349 15.5187 69.6423 15.647C69.9356 15.7717 70.251 15.834 70.5883 15.834C70.79 15.834 70.9715 15.823 71.1328 15.801C71.2978 15.779 71.4481 15.7442 71.5838 15.6965C71.7231 15.6488 71.8533 15.5883 71.9743 15.515C72.099 15.438 72.2218 15.3445 72.3428 15.2345C72.3795 15.2015 72.418 15.1758 72.4583 15.1575C72.4986 15.1355 72.5426 15.1245 72.5903 15.1245ZM82.1317 13.0235C82.1317 13.6065 82.0345 14.1473 81.8402 14.646C81.6459 15.141 81.3727 15.57 81.0207 15.933C80.6687 16.296 80.2452 16.5802 79.7502 16.7855C79.2552 16.9872 78.707 17.088 78.1057 17.088C77.5044 17.088 76.9544 16.9872 76.4557 16.7855C75.9607 16.5802 75.5354 16.296 75.1797 15.933C74.8277 15.57 74.5545 15.141 74.3602 14.646C74.1659 14.1473 74.0687 13.6065 74.0687 13.0235C74.0687 12.4405 74.1659 11.9015 74.3602 11.4065C74.5545 10.9078 74.8277 10.477 75.1797 10.114C75.5354 9.751 75.9607 9.46867 76.4557 9.267C76.9544 9.06167 77.5044 8.959 78.1057 8.959C78.707 8.959 79.2552 9.06167 79.7502 9.267C80.2452 9.47233 80.6687 9.7565 81.0207 10.1195C81.3727 10.4788 81.6459 10.9078 81.8402 11.4065C82.0345 11.9015 82.1317 12.4405 82.1317 13.0235ZM80.6137 13.0235C80.6137 12.5872 80.555 12.1967 80.4377 11.852C80.324 11.5037 80.159 11.2085 79.9427 10.9665C79.7264 10.7245 79.4624 10.5393 79.1507 10.411C78.8427 10.2827 78.4944 10.2185 78.1057 10.2185C77.717 10.2185 77.3669 10.2827 77.0552 10.411C76.7435 10.5393 76.4777 10.7245 76.2577 10.9665C76.0414 11.2085 75.8745 11.5037 75.7572 11.852C75.6399 12.1967 75.5812 12.5872 75.5812 13.0235C75.5812 13.4598 75.6399 13.8522 75.7572 14.2005C75.8745 14.5452 76.0414 14.8385 76.2577 15.0805C76.4777 15.3188 76.7435 15.5022 77.0552 15.6305C77.3669 15.7588 77.717 15.823 78.1057 15.823C78.4944 15.823 78.8427 15.7588 79.1507 15.6305C79.4624 15.5022 79.7264 15.3188 79.9427 15.0805C80.159 14.8385 80.324 14.5452 80.4377 14.2005C80.555 13.8522 80.6137 13.4598 80.6137 13.0235ZM90.363 13.0235C90.363 13.6065 90.2659 14.1418 90.0715 14.6295C89.8772 15.1172 89.604 15.537 89.252 15.889C88.9 16.241 88.4765 16.5142 87.9815 16.7085C87.4865 16.9028 86.9384 17 86.337 17H83.301V9.047H86.337C86.9384 9.047 87.4865 9.146 87.9815 9.344C88.4765 9.53833 88.9 9.8115 89.252 10.1635C89.604 10.5118 89.8772 10.9298 90.0715 11.4175C90.2659 11.9052 90.363 12.4405 90.363 13.0235ZM88.8505 13.0235C88.8505 12.5872 88.7919 12.1967 88.6745 11.852C88.5572 11.5037 88.3904 11.2103 88.174 10.972C87.9577 10.73 87.6937 10.5448 87.382 10.4165C87.074 10.2882 86.7257 10.224 86.337 10.224H84.7915V15.823H86.337C86.7257 15.823 87.074 15.7588 87.382 15.6305C87.6937 15.5022 87.9577 15.3188 88.174 15.0805C88.3904 14.8385 88.5572 14.5452 88.6745 14.2005C88.7919 13.8522 88.8505 13.4598 88.8505 13.0235ZM96.5348 9.047V10.224H93.0093V12.4295H95.7868V13.568H93.0093V15.8175H96.5348V17H91.5188V9.047H96.5348Z" fill="black"/>
</svg>
