<svg width="18" height="18" viewBox="0 0 18 18" fill="none" xmlns="http://www.w3.org/2000/svg">
<path d="M17.2857 14.3661C17.2857 14.2801 17.2857 14.1942 17.2489 14.1083C17.1629 13.8504 16.5614 13.5804 16.3158 13.4576C15.6161 13.0647 14.904 12.6842 14.2165 12.279C13.8973 12.0826 13.5045 11.7143 13.1239 11.7143C12.375 11.7143 11.2824 13.9364 10.6194 13.9364C10.2879 13.9364 9.85826 13.6295 9.56362 13.4576C7.32924 12.2176 5.78237 10.6708 4.54241 8.43638C4.37054 8.14174 4.06362 7.71205 4.06362 7.38058C4.06362 6.71763 6.28571 5.625 6.28571 4.87612C6.28571 4.49553 5.91741 4.10268 5.72098 3.78348C5.31585 3.09598 4.93527 2.38393 4.54241 1.68415C4.41964 1.43862 4.14955 0.837053 3.89174 0.751115C3.8058 0.714285 3.71987 0.714285 3.63393 0.714285C3.19196 0.714285 2.33259 0.910714 1.92746 1.09487C1.32589 1.35268 0.933036 2.04018 0.626116 2.59263C0.233259 3.31696 0 4.05357 0 4.87612C0 6.01786 0.466518 7.04911 0.847098 8.09263C1.11719 8.84152 1.44866 9.56585 1.86607 10.2411C3.15513 12.3281 5.67188 14.8449 7.75893 16.1339C8.43415 16.5513 9.15848 16.8828 9.90737 17.1529C10.9509 17.5335 11.9821 18 13.1239 18C13.9464 18 14.683 17.7667 15.4074 17.3739C15.9598 17.067 16.6473 16.6741 16.9051 16.0725C17.0893 15.6674 17.2857 14.808 17.2857 14.3661Z" fill="black"/>
</svg>
