<svg width="13" height="15" viewBox="0 0 13 15" fill="none" xmlns="http://www.w3.org/2000/svg">
<path d="M5.625 5.89062C5.625 5.80859 5.57031 5.72656 5.51562 5.67188C5.46094 5.61719 5.37891 5.5625 5.29688 5.5625H4.64062C4.53125 5.5625 4.44922 5.61719 4.39453 5.67188C4.33984 5.72656 4.3125 5.80859 4.3125 5.89062V11.7969C4.3125 11.9062 4.33984 11.9883 4.39453 12.043C4.44922 12.0977 4.53125 12.125 4.64062 12.125H5.29688C5.37891 12.125 5.46094 12.0977 5.51562 12.043C5.57031 11.9883 5.625 11.9062 5.625 11.7969V5.89062ZM8.35938 5.5625C8.44141 5.5625 8.52344 5.61719 8.57812 5.67188C8.63281 5.72656 8.6875 5.80859 8.6875 5.89062V11.7969C8.6875 11.9062 8.63281 11.9883 8.57812 12.043C8.52344 12.0977 8.44141 12.125 8.35938 12.125H7.70312C7.59375 12.125 7.51172 12.0977 7.45703 12.043C7.40234 11.9883 7.375 11.9062 7.375 11.7969V5.89062C7.375 5.80859 7.40234 5.72656 7.45703 5.67188C7.51172 5.61719 7.59375 5.5625 7.70312 5.5625H8.35938ZM11.9688 2.9375H9.94531L9.01562 1.37891C8.87891 1.1875 8.71484 1.02344 8.52344 0.914062C8.30469 0.804688 8.08594 0.75 7.86719 0.75H5.13281C4.88672 0.75 4.66797 0.804688 4.47656 0.914062C4.25781 1.02344 4.09375 1.1875 3.98438 1.37891L3.05469 2.9375H1.03125C0.839844 2.9375 0.675781 3.01953 0.566406 3.12891C0.429688 3.26562 0.375 3.42969 0.375 3.59375V3.92188C0.375 4.03125 0.402344 4.11328 0.457031 4.16797C0.511719 4.22266 0.59375 4.25 0.703125 4.25H1.25V13.4375C1.25 13.8203 1.35938 14.1211 1.63281 14.3672C1.87891 14.6406 2.17969 14.75 2.5625 14.75H10.4375C10.793 14.75 11.0938 14.6406 11.3672 14.3672C11.6133 14.1211 11.75 13.8203 11.75 13.4375V4.25H12.2969C12.3789 4.25 12.4609 4.22266 12.5156 4.16797C12.5703 4.11328 12.625 4.03125 12.625 3.92188V3.59375C12.625 3.42969 12.543 3.26562 12.4336 3.12891C12.2969 3.01953 12.1328 2.9375 11.9688 2.9375ZM4.58594 2.9375L5.07812 2.14453C5.10547 2.08984 5.16016 2.0625 5.21484 2.0625H7.78516C7.83984 2.0625 7.86719 2.08984 7.92188 2.14453L8.41406 2.9375H4.58594ZM10.4375 4.25V13.2734C10.4375 13.3281 10.4102 13.3555 10.3828 13.3828C10.3281 13.4375 10.3008 13.4375 10.2734 13.4375H2.72656C2.67188 13.4375 2.64453 13.4375 2.61719 13.3828C2.5625 13.3555 2.5625 13.3281 2.5625 13.2734V4.25H10.4375Z" fill="#BCBCBC"/>
</svg>
