<svg id="Capa_1" data-name="Capa 1" xmlns="http://www.w3.org/2000/svg" viewBox="0 0 512 512"><defs><style>.cls-1{fill:#bcbcbc;}</style></defs><title>edit</title><path class="cls-1" d="M99.27,372h2.09L202.19,350a10,10,0,0,0,5.22-2.61L378.25,176.59a65.79,65.79,0,0,0,19.33-47A67.87,67.87,0,0,0,378.25,82a65.83,65.83,0,0,0-47-19.33h0a64.28,64.28,0,0,0-47,19.86L113.89,253.39a9.43,9.43,0,0,0-3.13,4.7L88.82,358.92A11.49,11.49,0,0,0,92,368.85,10.45,10.45,0,0,0,99.27,372ZM349,176.07,200.1,324.44,135.84,260.7,284.73,111.8ZM331.23,83.59h0A45.45,45.45,0,0,1,376.69,129v.53a43.88,43.88,0,0,1-13.07,31.87L299.36,96.65A45,45,0,0,1,331.23,83.59Zm-203.75,198,51.72,51.72L112.85,348Z"/><path class="cls-1" d="M431,428.41H81a10.45,10.45,0,0,0,0,20.9H431a10.45,10.45,0,1,0,0-20.9Z"/></svg>