<svg id="Layer_1" data-name="Layer 1" xmlns="http://www.w3.org/2000/svg" viewBox="0 0 13 13"><defs><style>.cls-1{fill:#bcbcbc;}</style></defs><title>ggg</title><path class="cls-1" d="M12.6,1.58,11.42.4h0A1.39,1.39,0,0,0,9.47.4L.7,9.17a.38.38,0,0,0-.1.2L0,12.55a.36.36,0,0,0,.1.34.36.36,0,0,0,.34.1l3.18-.58a.49.49,0,0,0,.2-.11L12.6,3.53A1.39,1.39,0,0,0,12.6,1.58Zm-9,9.91-2-2.05L9,1.94,11.06,4ZM1.21,10.22l1.57,1.57-1.92.35ZM12.06,3l-.46.46L9.54,1.4,10,.94a.63.63,0,0,1,.88,0l1.18,1.18A.63.63,0,0,1,12.06,3Z"/></svg>