<svg width="68" height="77" viewBox="0 0 68 77" fill="none" xmlns="http://www.w3.org/2000/svg">
<path d="M51.431 0H16.499V59.4141H51.431V0Z" fill="#8E6968"/>
<path d="M32.4324 3.55199H19.3369V18.9139H32.4324V3.55199Z" fill="#FDE7D0"/>
<path d="M48.5891 3.552H35.4922V18.9139H48.5891V3.552Z" fill="#FDE7D0"/>
<path d="M32.4304 22.0983H19.335V37.4602H32.4304V22.0983Z" fill="#FDE7D0"/>
<path d="M48.5881 22.0983H35.4912V37.4602H48.5881V22.0983Z" fill="#FDE7D0"/>
<path d="M32.4304 40.6511H19.335V56.0123H32.4304V40.6511Z" fill="#FDE7D0"/>
<path d="M48.5881 40.6492H35.4912V56.0103H48.5881V40.6492Z" fill="#FDE7D0"/>
<path opacity="0.3" d="M48.5952 3.55199V56.0103L33.9678 56.011L48.5952 3.55199Z" fill="#402A29"/>
<path d="M60.4093 61.9273H7.51367V67.9243H60.4093V61.9273Z" fill="#AA706F"/>
<path d="M60.4132 61.9273H7.51758L12.7913 59.39H55.1401L60.4132 61.9273Z" fill="#B78887"/>
<path d="M67.0038 70.2256H0.923828V76.2227H67.0038V70.2256Z" fill="#AA706F"/>
<path d="M67.0038 70.2256H0.923828L7.51601 67.6891H60.4116L67.0038 70.2256Z" fill="#B78887"/>
<g opacity="0.5" filter="url(#filter0_f)">
<path d="M25.5 60.4831L28.6513 57.3318H29.7768V60.4831H25.5Z" fill="black"/>
</g>
<path d="M28.627 60.6214H52.8817L52.9096 45.5778L28.6552 45.5202L28.627 60.6214Z" fill="#E9BF7E"/>
<path d="M27.417 45.6594L54.1495 45.7232L54.16 40.4718L27.4268 40.4083L27.417 45.6594Z" fill="#E9BF7E"/>
<path opacity="0.5" d="M50.4081 58.2033C52.0037 57.0716 51.1364 46.851 51.1364 46.851L28.6545 45.6629L28.9005 45.5219L52.9096 45.5781L52.8817 60.6218H28.627C28.627 60.6214 48.8125 59.3346 50.4081 58.2033Z" fill="#E9BF7E"/>
<path opacity="0.5" d="M27.4274 40.4083L45.4742 40.4512C45.0078 40.4502 30.0691 40.4261 29.197 41.1224C28.31 41.8298 29.0132 44.2438 29.0132 44.2438C29.0132 44.2438 54.1519 45.0137 54.1505 45.7232L27.418 45.659L27.4274 40.4083Z" fill="#E9BF7E"/>
<path d="M53.0566 41.1423C53.0566 41.1423 39.6403 40.9291 38.9318 41.1447C38.223 41.3624 51.9494 41.0366 52.3021 41.7998C52.6544 42.5634 52.8766 44.3006 52.8766 44.3006L53.0566 41.1423Z" fill="#E6D2AC"/>
<path d="M29.9565 45.9433C29.9565 45.9433 29.2442 56.683 29.4901 57.2589C29.736 57.8345 29.9108 46.9797 30.874 46.7251C31.8357 46.4701 33.8876 46.2008 33.8876 46.2008L29.9565 45.9433Z" fill="#E6D2AC"/>
<path d="M31.5781 52.387V51.6052H33.1732V51.9193C33.499 51.675 33.8294 51.5528 34.1645 51.5528C34.8463 51.5528 35.1872 51.9879 35.1872 52.8582V54.2055H35.6968V54.9839H34.1087V52.9385C34.1087 52.7547 34.0831 52.629 34.0319 52.5615C33.983 52.494 33.9016 52.4603 33.7875 52.4603C33.5874 52.4603 33.3827 52.5336 33.1732 52.6802V54.2055H33.6933V54.9839H31.5781V54.2055H32.0947V52.387H31.5781Z" fill="white"/>
<path d="M39.1425 54.2055V54.9839H37.5195V54.7186C37.2286 54.928 36.9215 55.0327 36.598 55.0327C36.2629 55.0327 35.9732 54.9373 35.7289 54.7465C35.4869 54.5557 35.3659 54.2997 35.3659 53.9786C35.3659 53.6552 35.4939 53.3841 35.7498 53.1654C36.0058 52.9466 36.3362 52.8373 36.7411 52.8373C36.9668 52.8373 37.2263 52.8943 37.5195 53.0083V52.8024C37.5195 52.6302 37.4613 52.4894 37.345 52.38C37.2286 52.2683 37.0727 52.2125 36.8772 52.2125C36.6352 52.2125 36.4281 52.3009 36.256 52.4778L35.3868 52.3207C35.6382 51.7878 36.1838 51.5214 37.0238 51.5214C37.3496 51.5214 37.6195 51.5586 37.8336 51.6331C38.0477 51.7052 38.2071 51.7995 38.3118 51.9158C38.4165 52.0322 38.4898 52.1601 38.5317 52.2997C38.5759 52.437 38.598 52.6616 38.598 52.9734V54.2055H39.1425ZM37.5195 53.7343C37.2589 53.5714 37.0506 53.49 36.8947 53.49C36.7714 53.49 36.6585 53.526 36.5561 53.5982C36.4561 53.6703 36.406 53.775 36.406 53.9123C36.406 54.0356 36.4468 54.1415 36.5282 54.2299C36.6096 54.3184 36.7144 54.3626 36.8423 54.3626C37.0425 54.3626 37.2682 54.2451 37.5195 54.01V53.7343Z" fill="white"/>
<path d="M42.8779 51.6052V52.387H42.3195V54.8826C42.3195 55.9972 41.7308 56.5545 40.5533 56.5545C39.8785 56.5545 39.3759 56.4324 39.0455 56.188L39.569 55.4725C39.8413 55.6401 40.1147 55.7238 40.3893 55.7238C40.629 55.7238 40.8302 55.6622 40.9931 55.5388C41.1583 55.4155 41.2409 55.1758 41.2409 54.8198V54.5615C40.8896 54.8757 40.5475 55.0327 40.2148 55.0327C39.8238 55.0327 39.4899 54.8698 39.213 54.5441C38.9384 54.216 38.8011 53.7983 38.8011 53.291C38.8011 52.7814 38.9431 52.3649 39.227 52.0415C39.5109 51.7157 39.8576 51.5528 40.2671 51.5528C40.6604 51.5528 40.985 51.7075 41.2409 52.017V51.6052H42.8779ZM41.2444 53.305C41.2444 53.0327 41.1839 52.8175 41.0629 52.6593C40.9419 52.501 40.7767 52.4219 40.5673 52.4219C40.3532 52.4219 40.1892 52.5034 40.0751 52.6662C39.9635 52.8291 39.9076 53.0385 39.9076 53.2945C39.9076 53.5505 39.9658 53.7599 40.0821 53.9228C40.2008 54.0833 40.3625 54.1636 40.5673 54.1636C40.7558 54.1636 40.9152 54.0892 41.0455 53.9402C41.1781 53.789 41.2444 53.5772 41.2444 53.305Z" fill="white"/>
<path d="M46.3481 54.2055V54.9839H44.725V54.7186C44.4342 54.928 44.127 55.0327 43.8036 55.0327C43.4685 55.0327 43.1788 54.9373 42.9345 54.7465C42.6925 54.5557 42.5715 54.2997 42.5715 53.9786C42.5715 53.6552 42.6995 53.3841 42.9554 53.1654C43.2114 52.9466 43.5418 52.8373 43.9467 52.8373C44.1724 52.8373 44.4319 52.8943 44.725 53.0083V52.8024C44.725 52.6302 44.6669 52.4894 44.5505 52.38C44.4342 52.2683 44.2783 52.2125 44.0828 52.2125C43.8408 52.2125 43.6337 52.3009 43.4615 52.4778L42.5924 52.3207C42.8437 51.7878 43.3894 51.5214 44.2294 51.5214C44.5552 51.5214 44.8251 51.5586 45.0392 51.6331C45.2533 51.7052 45.4127 51.7995 45.5174 51.9158C45.6221 52.0322 45.6954 52.1601 45.7373 52.2997C45.7815 52.437 45.8036 52.6616 45.8036 52.9734V54.2055H46.3481ZM44.725 53.7343C44.4644 53.5714 44.2562 53.49 44.1003 53.49C43.9769 53.49 43.8641 53.526 43.7617 53.5982C43.6616 53.6703 43.6116 53.775 43.6116 53.9123C43.6116 54.0356 43.6523 54.1415 43.7338 54.2299C43.8152 54.3184 43.9199 54.3626 44.0479 54.3626C44.248 54.3626 44.4737 54.2451 44.725 54.01V53.7343Z" fill="white"/>
<path d="M50.0765 54.2055V54.9839H48.443V54.5825C48.1428 54.8826 47.8171 55.0327 47.4657 55.0327C47.0445 55.0327 46.6955 54.8617 46.4186 54.5196C46.1417 54.1776 46.0032 53.7634 46.0032 53.2771C46.0032 52.7838 46.1452 52.3684 46.4291 52.031C46.7129 51.6913 47.0597 51.5214 47.4692 51.5214C47.8624 51.5214 48.1871 51.6738 48.443 51.9786V50.9071H47.916V50.1287H49.5215V54.2055H50.0765ZM48.4535 53.2875C48.4535 52.9641 48.3837 52.7337 48.2441 52.5964C48.1068 52.4591 47.9497 52.3905 47.7729 52.3905C47.5611 52.3905 47.3971 52.4731 47.2807 52.6383C47.1667 52.8012 47.1097 53.0164 47.1097 53.284C47.1097 53.5377 47.1667 53.7518 47.2807 53.9263C47.3947 54.0985 47.5599 54.1846 47.7764 54.1846C47.9555 54.1846 48.1126 54.1148 48.2476 53.9751C48.3848 53.8332 48.4535 53.604 48.4535 53.2875Z" fill="white"/>
<defs>
<filter id="filter0_f" x="21.5" y="53.3318" width="12.2768" height="11.1513" filterUnits="userSpaceOnUse" color-interpolation-filters="sRGB">
<feFlood flood-opacity="0" result="BackgroundImageFix"/>
<feBlend mode="normal" in="SourceGraphic" in2="BackgroundImageFix" result="shape"/>
<feGaussianBlur stdDeviation="2" result="effect1_foregroundBlur"/>
</filter>
</defs>
</svg>
