<svg width="47" height="47" viewBox="0 0 47 47" fill="none" xmlns="http://www.w3.org/2000/svg">
<circle cx="23.5" cy="23.5" r="23.5" fill="url(#paint0_linear)"/>
<path d="M6 22.2173V20.7572H9.01804V21.3438C9.63441 20.8876 10.2596 20.6594 10.8936 20.6594C12.1836 20.6594 12.8286 21.472 12.8286 23.0972V25.6133H13.7927V27.0668H10.7879V23.2471C10.7879 22.9039 10.7395 22.6692 10.6426 22.5432C10.5502 22.4172 10.3961 22.3542 10.1803 22.3542C9.80172 22.3542 9.41428 22.491 9.01804 22.7648V25.6133H10.002V27.0668H6V25.6133H6.9774V22.2173H6Z" fill="black"/>
<path d="M20.3122 25.6133V27.0668H17.2414V26.5714C16.691 26.9625 16.1099 27.1581 15.4979 27.1581C14.8639 27.1581 14.3158 26.9799 13.8535 26.6236C13.3956 26.2672 13.1667 25.7892 13.1667 25.1896C13.1667 24.5856 13.4088 24.0793 13.8931 23.6708C14.3774 23.2624 15.0026 23.0581 15.7687 23.0581C16.1957 23.0581 16.6866 23.1646 17.2414 23.3775V22.9929C17.2414 22.6714 17.1313 22.4085 16.9112 22.2042C16.691 21.9957 16.3961 21.8914 16.0262 21.8914C15.5683 21.8914 15.1765 22.0565 14.8507 22.3867L13.2063 22.0934C13.6818 21.0983 14.7142 20.6008 16.3036 20.6008C16.92 20.6008 17.4307 20.6703 17.8357 20.8093C18.2408 20.9441 18.5424 21.12 18.7405 21.3373C18.9386 21.5546 19.0773 21.7936 19.1565 22.0543C19.2402 22.3107 19.282 22.73 19.282 23.3123V25.6133H20.3122ZM17.2414 24.7333C16.7483 24.4291 16.3542 24.277 16.0592 24.277C15.8259 24.277 15.6124 24.3444 15.4187 24.4791C15.2293 24.6138 15.1347 24.8093 15.1347 25.0657C15.1347 25.296 15.2117 25.4938 15.3658 25.6589C15.5199 25.824 15.718 25.9066 15.9602 25.9066C16.3388 25.9066 16.7659 25.6871 17.2414 25.2482V24.7333Z" fill="black"/>
<path d="M27.3799 20.7572V22.2173H26.3232V26.8778C26.3232 28.9593 25.2093 30 22.9816 30C21.7048 30 20.7538 29.7719 20.1286 29.3156L21.1192 27.9794C21.6344 28.2922 22.1517 28.4487 22.6712 28.4487C23.1247 28.4487 23.5055 28.3335 23.8137 28.1032C24.1263 27.8729 24.2826 27.4253 24.2826 26.7605V26.2781C23.6178 26.8647 22.9706 27.1581 22.341 27.1581C21.6013 27.1581 20.9696 26.8539 20.4456 26.2455C19.9261 25.6328 19.6664 24.8528 19.6664 23.9055C19.6664 22.9538 19.9349 22.176 20.4721 21.572C21.0092 20.9636 21.6652 20.6594 22.4401 20.6594C23.1841 20.6594 23.7983 20.9484 24.2826 21.5263V20.7572H27.3799ZM24.2892 23.9316C24.2892 23.4231 24.1747 23.0212 23.9458 22.7257C23.7168 22.4302 23.4042 22.2825 23.008 22.2825C22.603 22.2825 22.2926 22.4345 22.0768 22.7387C21.8655 23.0429 21.7598 23.434 21.7598 23.912C21.7598 24.39 21.8699 24.7811 22.09 25.0853C22.3146 25.3851 22.6206 25.535 23.008 25.535C23.3646 25.535 23.6662 25.396 23.9128 25.1179C24.1637 24.8354 24.2892 24.44 24.2892 23.9316Z" fill="black"/>
<path d="M33.9456 25.6133V27.0668H30.8747V26.5714C30.3244 26.9625 29.7432 27.1581 29.1312 27.1581C28.4973 27.1581 27.9491 26.9799 27.4868 26.6236C27.029 26.2672 26.8 25.7892 26.8 25.1896C26.8 24.5856 27.0422 24.0793 27.5265 23.6708C28.0108 23.2624 28.6359 23.0581 29.402 23.0581C29.8291 23.0581 30.32 23.1646 30.8747 23.3775V22.9929C30.8747 22.6714 30.7646 22.4085 30.5445 22.2042C30.3244 21.9957 30.0294 21.8914 29.6596 21.8914C29.2017 21.8914 28.8099 22.0565 28.4841 22.3867L26.8397 22.0934C27.3151 21.0983 28.3476 20.6008 29.9369 20.6008C30.5533 20.6008 31.064 20.6703 31.4691 20.8093C31.8741 20.9441 32.1757 21.12 32.3738 21.3373C32.5719 21.5546 32.7106 21.7936 32.7899 22.0543C32.8735 22.3107 32.9154 22.73 32.9154 23.3123V25.6133H33.9456ZM30.8747 24.7333C30.3816 24.4291 29.9876 24.277 29.6926 24.277C29.4592 24.277 29.2457 24.3444 29.052 24.4791C28.8627 24.6138 28.768 24.8093 28.768 25.0657C28.768 25.296 28.8451 25.4938 28.9992 25.6589C29.1533 25.824 29.3514 25.9066 29.5935 25.9066C29.9722 25.9066 30.3992 25.6871 30.8747 25.2482V24.7333Z" fill="black"/>
<path d="M41 25.6133V27.0668H37.9093V26.3172C37.3414 26.8778 36.725 27.1581 36.0602 27.1581C35.2633 27.1581 34.6029 26.8387 34.079 26.1999C33.5551 25.5611 33.2931 24.7876 33.2931 23.8794C33.2931 22.9582 33.5617 22.1825 34.0988 21.5524C34.6359 20.918 35.2919 20.6008 36.0668 20.6008C36.8108 20.6008 37.425 20.8854 37.9093 21.4546V19.4536H36.9121V18H39.95V25.6133H41ZM37.9291 23.899C37.9291 23.2949 37.797 22.8647 37.5329 22.6084C37.2731 22.352 36.9759 22.2238 36.6413 22.2238C36.2407 22.2238 35.9303 22.3781 35.7102 22.6866C35.4944 22.9908 35.3866 23.3927 35.3866 23.8924C35.3866 24.3661 35.4944 24.7659 35.7102 25.0918C35.9259 25.4134 36.2385 25.5741 36.6479 25.5741C36.987 25.5741 37.2841 25.4438 37.5395 25.1831C37.7992 24.918 37.9291 24.49 37.9291 23.899Z" fill="black"/>
<defs>
<linearGradient id="paint0_linear" x1="41.3208" y1="47" x2="7.36539" y2="25.5958" gradientUnits="userSpaceOnUse">
<stop stop-color="#84D8E2"/>
<stop offset="1" stop-color="#A1E5D0"/>
</linearGradient>
</defs>
</svg>
