<svg width="22" height="22" viewBox="0 0 22 22" fill="none" xmlns="http://www.w3.org/2000/svg">
<path fill-rule="evenodd" clip-rule="evenodd" d="M10.9969 2.58838C6.35275 2.58838 2.58789 6.35324 2.58789 10.9974C2.58789 15.6416 6.35275 19.4065 10.9969 19.4065C15.6411 19.4065 19.406 15.6416 19.406 10.9974C19.406 6.35324 15.6411 2.58838 10.9969 2.58838ZM1.08789 10.9974C1.08789 5.52482 5.52433 1.08838 10.9969 1.08838C16.4696 1.08838 20.906 5.52482 20.906 10.9974C20.906 16.4701 16.4696 20.9065 10.9969 20.9065C5.52433 20.9065 1.08789 16.4701 1.08789 10.9974ZM11.2614 7.19258C10.7964 7.11282 10.3182 7.2002 9.91143 7.43925C9.50469 7.67829 9.19568 8.05357 9.03912 8.49861C8.90167 8.88936 8.47348 9.09469 8.08274 8.95723C7.692 8.81978 7.48667 8.39159 7.62412 8.00085C7.89823 7.22164 8.43927 6.56458 9.15141 6.14605C9.86355 5.72752 10.7008 5.57453 11.515 5.71417C12.3291 5.85382 13.0675 6.27709 13.5995 6.90901C14.1314 7.54088 14.4225 8.34059 14.4214 9.16653V9.16564H13.6714L14.4214 9.16675C14.4208 10.4802 13.4455 11.3624 12.7135 11.8505C12.3246 12.1098 11.941 12.301 11.6576 12.427C11.5148 12.4904 11.3948 12.5385 11.3087 12.5713C11.2656 12.5877 11.2308 12.6004 11.2058 12.6093L11.1755 12.6199L11.1662 12.6231L11.163 12.6241L11.1618 12.6245L11.1613 12.6247C11.161 12.6248 11.1608 12.6249 10.9236 11.9134L11.1608 12.6249C10.7679 12.7559 10.3431 12.5435 10.2121 12.1505C10.0813 11.758 10.293 11.3338 10.6851 11.2023L10.6859 11.202L10.6861 11.202L10.6875 11.2015L10.7032 11.196C10.7184 11.1906 10.7427 11.1818 10.7747 11.1696C10.8389 11.1451 10.9335 11.1073 11.0484 11.0563C11.2802 10.9532 11.5835 10.801 11.8815 10.6024C12.5231 10.1746 12.9214 9.68339 12.9214 9.16564L12.9214 9.16452C12.9221 8.69274 12.7558 8.23594 12.4519 7.87501C12.1481 7.51409 11.7264 7.27234 11.2614 7.19258ZM10.9969 14.8269C10.5827 14.8269 10.2469 15.1627 10.2469 15.5769C10.2469 15.9911 10.5827 16.3269 10.9969 16.3269H11.0069C11.4211 16.3269 11.7569 15.9911 11.7569 15.5769C11.7569 15.1627 11.4211 14.8269 11.0069 14.8269H10.9969Z" fill="#00A57D"/>
</svg>
