<svg width="11" height="15" viewBox="0 0 11 15" fill="none" xmlns="http://www.w3.org/2000/svg">
<path d="M4.70312 14.4766C4.8125 14.668 5.00391 14.75 5.25 14.75C5.46875 14.75 5.66016 14.668 5.79688 14.4766L7.62891 11.8516C8.53125 10.5391 9.13281 9.66406 9.43359 9.19922C9.84375 8.54297 10.1172 7.99609 10.2812 7.55859C10.418 7.12109 10.5 6.60156 10.5 6C10.5 5.07031 10.2539 4.19531 9.78906 3.375C9.29688 2.58203 8.66797 1.95312 7.875 1.46094C7.05469 0.996094 6.17969 0.75 5.25 0.75C4.29297 0.75 3.41797 0.996094 2.625 1.46094C1.80469 1.95312 1.17578 2.58203 0.710938 3.375C0.21875 4.19531 0 5.07031 0 6C0 6.60156 0.0546875 7.12109 0.21875 7.55859C0.355469 7.99609 0.628906 8.54297 1.06641 9.19922C1.33984 9.66406 1.94141 10.5391 2.87109 11.8516C3.60938 12.918 4.21094 13.793 4.70312 14.4766Z" fill="black"/>
</svg>
