<svg width="20" height="27" viewBox="0 0 20 27" fill="none" xmlns="http://www.w3.org/2000/svg">
<path d="M9.87901 14.438C11.8629 14.438 13.4712 12.8297 13.4712 10.8458C13.4712 8.86188 11.8629 7.25359 9.87901 7.25359C7.89508 7.25359 6.28679 8.86188 6.28679 10.8458C6.28679 12.8297 7.89508 14.438 9.87901 14.438Z" fill="#BCBCBC"/>
<path fill-rule="evenodd" clip-rule="evenodd" d="M14.625 1.39252C13.1016 0.529236 11.4766 0.0722046 9.75 0.0722046C7.97266 0.0722046 6.34766 0.529236 4.875 1.39252C3.35156 2.30658 2.18359 3.47455 1.32031 4.9472C0.40625 6.47064 0 8.09564 0 9.8222C0 10.9394 0.101562 11.9042 0.40625 12.7167C0.660156 13.5292 1.16797 14.5449 1.98047 15.7636C2.48828 16.6269 3.60547 18.2519 5.33203 20.6894L8.73438 25.5644C8.9375 25.9199 9.29297 26.0722 9.75 26.0722C10.1562 26.0722 10.5117 25.9199 10.7656 25.5644L14.168 20.6894C15.8438 18.2519 16.9609 16.6269 17.5195 15.7636C18.2812 14.5449 18.7891 13.5292 19.0938 12.7167C19.3477 11.9042 19.5 10.9394 19.5 9.8222C19.5 8.09564 19.043 6.47064 18.1797 4.9472C17.2656 3.47455 16.0977 2.30658 14.625 1.39252ZM12.8984 19.623L9.75 24.1425C9.43637 23.6917 9.08492 23.1879 8.69855 22.634C8.08397 21.7531 7.38105 20.7455 6.60156 19.623C6.27421 19.1524 5.96952 18.7148 5.6875 18.3098C4.56958 16.7042 3.80786 15.6102 3.40234 15.0019C2.69141 13.8847 2.18359 12.9706 1.98047 12.2597C1.72656 11.5488 1.625 10.7363 1.625 9.8222C1.625 8.7558 1.82812 7.74017 2.23438 6.72455C2.64062 5.7597 3.19922 4.89642 4.01172 4.08392C4.77344 3.3222 5.63672 2.71283 6.65234 2.30658C7.61719 1.90033 8.63281 1.6972 9.75 1.6972C10.8164 1.6972 11.832 1.90033 12.8477 2.30658C13.8125 2.71283 14.6758 3.3222 15.4883 4.08392C16.25 4.89642 16.8594 5.7597 17.2656 6.72455C17.6719 7.74017 17.875 8.7558 17.875 9.8222C17.875 10.7363 17.7227 11.5488 17.5195 12.2597C17.2656 12.9706 16.8086 13.8847 16.0977 15.0019C15.6921 15.6102 14.9304 16.7042 13.8125 18.3098C13.5305 18.7148 13.2258 19.1524 12.8984 19.623Z" fill="#BCBCBC"/>
</svg>
