<svg width="22" height="22" viewBox="0 0 22 22" fill="none" xmlns="http://www.w3.org/2000/svg">
<path opacity="0.54" fill-rule="evenodd" clip-rule="evenodd" d="M13.7408 10.0833L13.7491 4.58331C13.7491 3.06348 12.5189 1.83331 11 1.83331C9.48201 1.83331 8.25001 3.06348 8.25001 4.58331V10.0833C8.25001 11.6013 9.48201 12.8333 11 12.8333C12.5189 12.8333 13.7408 11.6013 13.7408 10.0833ZM15.8574 10.0833C15.8574 12.8333 13.5318 14.7583 11 14.7583C8.46909 14.7583 6.14168 12.8333 6.14168 10.0833H4.58334C4.58334 13.2137 7.07576 15.7969 10.0833 16.2415V19.25H11.9167V16.2415C14.9224 15.7969 17.4167 13.2137 17.4167 10.0833H15.8574Z" fill="black"/>
</svg>
