<svg width="37" height="65" viewBox="0 0 37 65" fill="none" xmlns="http://www.w3.org/2000/svg">
<rect x="1" y="1" width="35" height="63" rx="3" fill="#FDE7D0" stroke="#8E6968" stroke-width="2"/>
<rect x="5" y="9" width="7" height="7" rx="1" fill="#FDE7D0" stroke="#8E6968" stroke-width="2"/>
<rect x="14" y="10" width="19" height="2" rx="1" fill="#8E6968"/>
<rect x="14" y="13" width="12" height="2" rx="1" fill="#8E6968"/>
<rect x="18" y="27" width="16" height="2" rx="1" fill="#8E6968"/>
<rect x="4" y="43" width="29" height="2" rx="1" fill="#8E6968"/>
<rect x="4" y="47" width="24" height="2" rx="1" fill="#8E6968"/>
<rect x="4" y="51" width="19" height="2" rx="1" fill="#8E6968"/>
<rect x="4" y="55" width="8" height="2" rx="1" fill="#8E6968"/>
<rect x="18" y="30" width="12" height="2" rx="1" fill="#8E6968"/>
<rect x="5" y="24" width="11" height="11" rx="2" fill="#FE7D05" stroke="#8E6968" stroke-width="2"/>
<path d="M12.8337 27.75L9.62533 30.9583L8.16699 29.5" stroke="white" stroke-width="1.5" stroke-linecap="round" stroke-linejoin="round"/>
</svg>
