<svg width="141" height="50" viewBox="0 0 141 50" fill="none" xmlns="http://www.w3.org/2000/svg">
<path d="M0 17.7086V11.7876H12.0799V14.1666C14.547 12.3163 17.0493 11.3911 19.5869 11.3911C24.7502 11.3911 27.3318 14.6865 27.3318 21.2771V31.4803H31.191V37.3749H19.164V21.8851C19.164 20.4929 18.9701 19.5413 18.5824 19.0303C18.2124 18.5193 17.5956 18.2637 16.7321 18.2637C15.2166 18.2637 13.6659 18.8188 12.0799 19.929V31.4803H16.0184V37.3749H0V31.4803H3.91209V17.7086H0Z" fill="black"/>
<path d="M57.2858 31.4803V37.3749H44.9944V35.3659C42.7916 36.9519 40.4655 37.7449 38.016 37.7449C35.4785 37.7449 33.2845 37.0224 31.4342 35.5774C29.6015 34.1324 28.6852 32.194 28.6852 29.7621C28.6852 27.3127 29.6544 25.2597 31.5928 23.6032C33.5312 21.9467 36.0336 21.1185 39.0998 21.1185C40.8091 21.1185 42.774 21.5503 44.9944 22.4137V20.8542C44.9944 19.5501 44.5538 18.484 43.6727 17.6558C42.7916 16.8099 41.6109 16.387 40.1307 16.387C38.298 16.387 36.7296 17.0566 35.4256 18.3959L28.8438 17.2064C30.747 13.171 34.8793 11.1532 41.2409 11.1532C43.708 11.1532 45.7521 11.4352 47.3734 11.9991C48.9946 12.5454 50.2017 13.2591 50.9947 14.1402C51.7877 15.0213 52.3428 15.9905 52.66 17.0478C52.9948 18.0875 53.1622 19.788 53.1622 22.1494V31.4803H57.2858ZM44.9944 27.9118C43.0207 26.6783 41.4435 26.0615 40.2629 26.0615C39.3289 26.0615 38.4742 26.3346 37.6988 26.8809C36.9411 27.4272 36.5622 28.2202 36.5622 29.2599C36.5622 30.1939 36.8706 30.9957 37.4874 31.6653C38.1042 32.3349 38.8971 32.6698 39.8664 32.6698C41.3819 32.6698 43.0912 31.7799 44.9944 30V27.9118Z" fill="black"/>
<path d="M85.5744 11.7876V17.7086H81.3451V36.6083C81.3451 45.0493 76.8868 49.2697 67.97 49.2697C62.8596 49.2697 59.0532 48.3446 56.5509 46.4943L60.5159 41.0755C62.5777 42.3443 64.6482 42.9787 66.7276 42.9787C68.5427 42.9787 70.067 42.5117 71.3006 41.5777C72.5517 40.6437 73.1773 38.8287 73.1773 36.1325V34.1764C70.5164 36.5554 67.9259 37.7449 65.406 37.7449C62.4455 37.7449 59.9167 36.5114 57.8197 34.0443C55.7403 31.5596 54.7006 28.3964 54.7006 24.5548C54.7006 20.6956 55.7755 17.5412 57.9254 15.0918C60.0753 12.6247 62.701 11.3911 65.8025 11.3911C68.7806 11.3911 71.2389 12.563 73.1773 14.9067V11.7876H85.5744ZM73.2038 24.6605C73.2038 22.5988 72.7456 20.9687 71.8292 19.7704C70.9129 18.5721 69.6617 17.973 68.0757 17.973C66.4545 17.973 65.2122 18.5897 64.3487 19.8233C63.5028 21.0568 63.0799 22.6428 63.0799 24.5812C63.0799 26.5197 63.5204 28.1057 64.4015 29.3392C65.3003 30.5551 66.525 31.1631 68.0757 31.1631C69.5031 31.1631 70.7102 30.5992 71.6971 29.4714C72.7015 28.3259 73.2038 26.7223 73.2038 24.6605Z" fill="black"/>
<path d="M111.854 31.4803V37.3749H99.5628V35.3659C97.36 36.9519 95.0339 37.7449 92.5845 37.7449C90.0469 37.7449 87.853 37.0224 86.0026 35.5774C84.1699 34.1324 83.2536 32.194 83.2536 29.7621C83.2536 27.3127 84.2228 25.2597 86.1612 23.6032C88.0997 21.9467 90.602 21.1185 93.6682 21.1185C95.3776 21.1185 97.3424 21.5503 99.5628 22.4137V20.8542C99.5628 19.5501 99.1223 18.484 98.2411 17.6558C97.36 16.8099 96.1794 16.387 94.6991 16.387C92.8664 16.387 91.2981 17.0566 89.994 18.3959L83.4122 17.2064C85.3154 13.171 89.4478 11.1532 95.8093 11.1532C98.2764 11.1532 100.321 11.4352 101.942 11.9991C103.563 12.5454 104.77 13.2591 105.563 14.1402C106.356 15.0213 106.911 15.9905 107.228 17.0478C107.563 18.0875 107.731 19.788 107.731 22.1494V31.4803H111.854ZM99.5628 27.9118C97.5891 26.6783 96.012 26.0615 94.8313 26.0615C93.8973 26.0615 93.0426 26.3346 92.2673 26.8809C91.5095 27.4272 91.1307 28.2202 91.1307 29.2599C91.1307 30.1939 91.439 30.9957 92.0558 31.6653C92.6726 32.3349 93.4656 32.6698 94.4348 32.6698C95.9503 32.6698 97.6596 31.7799 99.5628 30V27.9118Z" fill="black"/>
<path d="M140.09 31.4803V37.3749H127.719V34.335C125.446 36.6083 122.979 37.7449 120.318 37.7449C117.128 37.7449 114.485 36.4497 112.388 33.8593C110.291 31.2688 109.243 28.1321 109.243 24.4491C109.243 20.7132 110.318 17.5677 112.467 15.0125C114.617 12.4397 117.243 11.1532 120.344 11.1532C123.323 11.1532 125.781 12.3075 127.719 14.616V6.50102H123.728V0.606445H135.887V31.4803H140.09ZM127.799 24.5284C127.799 22.0789 127.27 20.3343 126.213 19.2946C125.173 18.2549 123.983 17.7351 122.644 17.7351C121.041 17.7351 119.798 18.3607 118.917 19.6118C118.054 20.8454 117.622 22.4754 117.622 24.5019C117.622 26.4227 118.054 28.044 118.917 29.3656C119.781 30.6697 121.032 31.3217 122.671 31.3217C124.027 31.3217 125.217 30.793 126.239 29.7357C127.279 28.6607 127.799 26.925 127.799 24.5284Z" fill="black"/>
</svg>
