<svg width="20" height="23" viewBox="0 0 20 23" fill="none" xmlns="http://www.w3.org/2000/svg">
<path d="M18.2617 14.9727C18.9062 15.6602 19.25 16.3906 19.25 17.1641C19.25 17.9375 18.9492 18.625 18.3906 19.1836C17.832 19.7422 17.1445 20 16.3711 20H12.375C12.375 20.7734 12.0742 21.4609 11.5586 21.9766C11.043 22.4922 10.3984 22.75 9.625 22.75C8.85156 22.75 8.16406 22.4922 7.64844 21.9766C7.13281 21.4609 6.875 20.7734 6.875 20H2.87891C2.0625 20 1.375 19.7422 0.816406 19.1836C0.257812 18.625 0 17.9375 0 17.1641C0 16.3906 0.300781 15.6602 0.988281 14.9727C1.28906 14.6719 1.50391 14.4141 1.67578 14.1562C1.93359 13.7695 2.10547 13.2969 2.23438 12.6953C2.36328 12.0078 2.44922 11.1055 2.44922 9.98828C2.44922 8.82812 2.70703 7.75391 3.22266 6.72266C3.73828 5.69141 4.46875 4.875 5.41406 4.1875C6.31641 3.5 7.34766 3.07031 8.50781 2.89844C8.33594 2.68359 8.25 2.42578 8.25 2.125C8.25 1.78125 8.37891 1.4375 8.63672 1.17969C8.89453 0.921875 9.23828 0.75 9.625 0.75C9.96875 0.75 10.3125 0.921875 10.5703 1.17969C10.8281 1.4375 11 1.78125 11 2.125C11 2.42578 10.9141 2.68359 10.7422 2.89844C11.8594 3.07031 12.8906 3.5 13.8359 4.1875C14.7383 4.875 15.4688 5.69141 15.9844 6.72266C16.5 7.75391 16.8008 8.82812 16.8008 9.98828C16.8008 11.1055 16.8438 12.0078 17.0156 12.6953C17.1016 13.2969 17.3164 13.7695 17.5742 14.1562C17.7031 14.4141 17.918 14.6719 18.2617 14.9727ZM9.625 21.0312C9.88281 21.0312 10.1406 20.9453 10.3555 20.7305C10.5273 20.5586 10.6562 20.3008 10.6562 20H8.59375C8.59375 20.3008 8.67969 20.5586 8.89453 20.7305C9.06641 20.9453 9.32422 21.0312 9.625 21.0312ZM16.3711 17.9375C16.7148 17.9375 16.9727 17.8086 17.1016 17.4648C17.2305 17.1211 17.1875 16.8203 16.9297 16.5625C16.4141 16.0469 16.0703 15.6172 15.8125 15.2305C15.4688 14.7148 15.2109 14.0703 15.0391 13.2969C14.8242 12.4375 14.7383 11.3203 14.7383 9.98828C14.7383 9.08594 14.4805 8.22656 14.0508 7.45312C13.5781 6.67969 12.9336 6.03516 12.1602 5.5625C11.3867 5.13281 10.5273 4.875 9.625 4.875C8.67969 4.875 7.82031 5.13281 7.04688 5.5625C6.27344 6.03516 5.62891 6.67969 5.19922 7.45312C4.72656 8.22656 4.51172 9.08594 4.51172 9.98828C4.51172 11.3203 4.38281 12.3945 4.21094 13.2539C4.03906 14.0273 3.78125 14.7148 3.4375 15.2305C3.17969 15.6172 2.79297 16.0469 2.32031 16.5625C2.0625 16.8203 1.97656 17.1211 2.10547 17.4648C2.23438 17.8086 2.49219 17.9375 2.87891 17.9375H16.3711Z" fill="black"/>
</svg>
