<svg width="30" height="30" viewBox="0 0 30 30" fill="none" xmlns="http://www.w3.org/2000/svg">
<path d="M13.4469 4.00894C13.9964 2.5904 16.0036 2.5904 16.5531 4.00894C16.9604 5.06006 18.2722 5.41158 19.1505 4.7049C20.3357 3.75119 22.0739 4.75475 21.8406 6.25803C21.6677 7.37194 22.6281 8.33231 23.742 8.15942C25.2452 7.92608 26.2488 9.66431 25.2951 10.8495C24.5884 11.7278 24.9399 13.0396 25.9911 13.4469C27.4096 13.9964 27.4096 16.0036 25.9911 16.5531C24.9399 16.9604 24.5884 18.2722 25.2951 19.1505C26.2488 20.3357 25.2452 22.0739 23.742 21.8406C22.6281 21.6677 21.6677 22.6281 21.8406 23.742C22.0739 25.2452 20.3357 26.2488 19.1505 25.2951C18.2722 24.5884 16.9604 24.9399 16.5531 25.9911C16.0036 27.4096 13.9964 27.4096 13.4469 25.9911C13.0396 24.9399 11.7278 24.5884 10.8495 25.2951C9.66431 26.2488 7.92608 25.2452 8.15942 23.742C8.33231 22.6281 7.37194 21.6677 6.25803 21.8406C4.75475 22.0739 3.75119 20.3357 4.7049 19.1505C5.41158 18.2722 5.06006 16.9604 4.00894 16.5531C2.5904 16.0036 2.5904 13.9964 4.00894 13.4469C5.06006 13.0396 5.41158 11.7278 4.7049 10.8495C3.75119 9.66431 4.75475 7.92608 6.25803 8.15942C7.37194 8.33231 8.33231 7.37194 8.15942 6.25803C7.92608 4.75475 9.66431 3.75119 10.8495 4.7049C11.7278 5.41158 13.0396 5.06006 13.4469 4.00894Z" fill="#6BCECC"/>
<path d="M13.082 13.1445C12.8281 13.3984 12.5488 13.5 12.2188 13.5C11.8633 13.5 11.584 13.3984 11.3555 13.1445C11.1016 12.916 11 12.6367 11 12.2812C11 11.9512 11.1016 11.6719 11.3555 11.418C11.584 11.1895 11.8633 11.0625 12.2188 11.0625C12.5488 11.0625 12.8281 11.1895 13.082 11.418C13.3105 11.6719 13.4375 11.9512 13.4375 12.2812C13.4375 12.6367 13.3105 12.916 13.082 13.1445ZM17.043 17.1055C17.2715 16.877 17.5508 16.75 17.9062 16.75C18.2363 16.75 18.5156 16.877 18.7695 17.1055C18.998 17.3594 19.125 17.6387 19.125 17.9688C19.125 18.3242 18.998 18.6035 18.7695 18.832C18.5156 19.0859 18.2363 19.1875 17.9062 19.1875C17.5508 19.1875 17.2715 19.0859 17.043 18.832C16.7891 18.6035 16.6875 18.3242 16.6875 17.9688C16.6875 17.6387 16.7891 17.3594 17.043 17.1055ZM18.998 11.748C19.0742 11.8496 19.125 11.9512 19.125 12.0527C19.125 12.1543 19.0742 12.2559 18.998 12.332L12.2695 19.0605C12.168 19.1621 12.0664 19.1875 11.9648 19.1875C11.8633 19.1875 11.7617 19.1621 11.6855 19.0605L11.127 18.502C11.0254 18.4258 11 18.3242 11 18.2227C11 18.1211 11.0254 18.0195 11.127 17.918L17.8555 11.1895C17.9316 11.1133 18.0332 11.0625 18.1348 11.0625C18.2363 11.0625 18.3379 11.1133 18.4395 11.1895L18.998 11.748Z" fill="white"/>
</svg>
