<svg width="12" height="13" viewBox="0 0 12 13" fill="none" xmlns="http://www.w3.org/2000/svg">
<path d="M6 0.6875C7.03125 0.6875 8.01562 0.96875 8.90625 1.48438C9.79688 2 10.5 2.70312 11.0156 3.59375C11.5312 4.48438 11.8125 5.46875 11.8125 6.5C11.8125 7.55469 11.5312 8.51562 11.0156 9.40625C10.5 10.2969 9.79688 11.0234 8.90625 11.5391C8.01562 12.0547 7.03125 12.3125 6 12.3125C4.94531 12.3125 3.98438 12.0547 3.09375 11.5391C2.20312 11.0234 1.47656 10.2969 0.960938 9.40625C0.445312 8.51562 0.1875 7.55469 0.1875 6.5C0.1875 5.46875 0.445312 4.48438 0.960938 3.59375C1.47656 2.70312 2.20312 2 3.09375 1.48438C3.98438 0.96875 4.94531 0.6875 6 0.6875ZM9.375 7.15625V5.84375C9.375 5.77344 9.32812 5.70312 9.28125 5.65625C9.23438 5.60938 9.16406 5.5625 9.09375 5.5625H6.9375V3.40625C6.9375 3.33594 6.89062 3.26562 6.84375 3.21875C6.79688 3.17188 6.72656 3.125 6.65625 3.125H5.34375C5.25 3.125 5.17969 3.17188 5.13281 3.21875C5.08594 3.26562 5.0625 3.33594 5.0625 3.40625V5.5625H2.90625C2.8125 5.5625 2.74219 5.60938 2.69531 5.65625C2.64844 5.70312 2.625 5.77344 2.625 5.84375V7.15625C2.625 7.25 2.64844 7.32031 2.69531 7.36719C2.74219 7.41406 2.8125 7.4375 2.90625 7.4375H5.0625V9.59375C5.0625 9.6875 5.08594 9.75781 5.13281 9.80469C5.17969 9.85156 5.25 9.875 5.34375 9.875H6.65625C6.72656 9.875 6.79688 9.85156 6.84375 9.80469C6.89062 9.75781 6.9375 9.6875 6.9375 9.59375V7.4375H9.09375C9.16406 7.4375 9.23438 7.41406 9.28125 7.36719C9.32812 7.32031 9.375 7.25 9.375 7.15625Z" fill="black"/>
</svg>
