<svg width="19" height="20" viewBox="0 0 19 20" fill="none" xmlns="http://www.w3.org/2000/svg">
<path d="M9.5 0.671875C11.1328 0.671875 12.6914 1.11719 14.1016 1.93359C15.5117 2.75 16.625 3.86328 17.4414 5.27344C18.2578 6.68359 18.7031 8.24219 18.7031 9.875C18.7031 11.5449 18.2578 13.0664 17.4414 14.4766C16.625 15.8867 15.5117 17.0371 14.1016 17.8535C12.6914 18.6699 11.1328 19.0781 9.5 19.0781C7.83008 19.0781 6.30859 18.6699 4.89844 17.8535C3.48828 17.0371 2.33789 15.8867 1.52148 14.4766C0.705078 13.0664 0.296875 11.5449 0.296875 9.875C0.296875 8.24219 0.705078 6.68359 1.52148 5.27344C2.33789 3.86328 3.48828 2.75 4.89844 1.93359C6.30859 1.11719 7.83008 0.671875 9.5 0.671875ZM14.8438 10.9141V8.83594C14.8438 8.72461 14.7695 8.61328 14.6953 8.53906C14.6211 8.46484 14.5098 8.39062 14.3984 8.39062H10.9844V4.97656C10.9844 4.86523 10.9102 4.75391 10.8359 4.67969C10.7617 4.60547 10.6504 4.53125 10.5391 4.53125H8.46094C8.3125 4.53125 8.20117 4.60547 8.12695 4.67969C8.05273 4.75391 8.01562 4.86523 8.01562 4.97656V8.39062H4.60156C4.45312 8.39062 4.3418 8.46484 4.26758 8.53906C4.19336 8.61328 4.15625 8.72461 4.15625 8.83594V10.9141C4.15625 11.0625 4.19336 11.1738 4.26758 11.248C4.3418 11.3223 4.45312 11.3594 4.60156 11.3594H8.01562V14.7734C8.01562 14.9219 8.05273 15.0332 8.12695 15.1074C8.20117 15.1816 8.3125 15.2188 8.46094 15.2188H10.5391C10.6504 15.2188 10.7617 15.1816 10.8359 15.1074C10.9102 15.0332 10.9844 14.9219 10.9844 14.7734V11.3594H14.3984C14.5098 11.3594 14.6211 11.3223 14.6953 11.248C14.7695 11.1738 14.8438 11.0625 14.8438 10.9141Z" fill="black"/>
</svg>
