<svg width="18" height="18" viewBox="0 0 18 18" fill="none" xmlns="http://www.w3.org/2000/svg">
<path d="M13.5 8.6875C13.5 8.58203 13.4297 8.47656 13.3594 8.40625C13.2891 8.33594 13.1836 8.26562 13.0781 8.26562H9.98438V5.17188C9.98438 5.06641 9.91406 4.96094 9.84375 4.89062C9.77344 4.82031 9.66797 4.75 9.5625 4.75H8.4375C8.29688 4.75 8.19141 4.82031 8.12109 4.89062C8.05078 4.96094 8.01562 5.06641 8.01562 5.17188V8.26562H4.92188C4.78125 8.26562 4.67578 8.33594 4.60547 8.40625C4.53516 8.47656 4.5 8.58203 4.5 8.6875V9.8125C4.5 9.95312 4.53516 10.0586 4.60547 10.1289C4.67578 10.1992 4.78125 10.2344 4.92188 10.2344H8.01562V13.3281C8.01562 13.4688 8.05078 13.5742 8.12109 13.6445C8.19141 13.7148 8.29688 13.75 8.4375 13.75H9.5625C9.66797 13.75 9.77344 13.7148 9.84375 13.6445C9.91406 13.5742 9.98438 13.4688 9.98438 13.3281V10.2344H13.0781C13.1836 10.2344 13.2891 10.1992 13.3594 10.1289C13.4297 10.0586 13.5 9.95312 13.5 9.8125V8.6875ZM17.7188 9.25C17.7188 7.70312 17.2969 6.22656 16.5234 4.89062C15.75 3.55469 14.6953 2.5 13.3594 1.72656C12.0234 0.953125 10.5469 0.53125 9 0.53125C7.41797 0.53125 5.97656 0.953125 4.64062 1.72656C3.30469 2.5 2.21484 3.55469 1.44141 4.89062C0.667969 6.22656 0.28125 7.70312 0.28125 9.25C0.28125 10.832 0.667969 12.2734 1.44141 13.6094C2.21484 14.9453 3.30469 16.0352 4.64062 16.8086C5.97656 17.582 7.41797 17.9688 9 17.9688C10.5469 17.9688 12.0234 17.582 13.3594 16.8086C14.6953 16.0352 15.75 14.9453 16.5234 13.6094C17.2969 12.2734 17.7188 10.832 17.7188 9.25ZM16.0312 9.25C16.0312 10.5156 15.7148 11.7109 15.082 12.7656C14.4492 13.8555 13.5703 14.6992 12.5156 15.332C11.4258 15.9648 10.2656 16.2812 9 16.2812C7.73438 16.2812 6.53906 15.9648 5.48438 15.332C4.39453 14.6992 3.55078 13.8555 2.91797 12.7656C2.28516 11.7109 1.96875 10.5156 1.96875 9.25C1.96875 7.98438 2.28516 6.82422 2.91797 5.73438C3.55078 4.67969 4.39453 3.80078 5.48438 3.16797C6.53906 2.53516 7.73438 2.21875 9 2.21875C10.2656 2.21875 11.4258 2.53516 12.5156 3.16797C13.5703 3.80078 14.4492 4.67969 15.082 5.73438C15.7148 6.82422 16.0312 7.98438 16.0312 9.25Z" fill="#00A57D"/>
</svg>
