<svg width="14" height="13" viewBox="0 0 14 13" fill="none" xmlns="http://www.w3.org/2000/svg">
<path fill-rule="evenodd" clip-rule="evenodd" d="M1.24035 12.2585C0.905559 11.9237 0.905559 11.3809 1.24035 11.0461L5.78686 6.4996L1.24035 1.95309C0.905559 1.6183 0.905559 1.07549 1.24035 0.74069C1.57515 0.405895 2.11796 0.405895 2.45276 0.74069L6.99926 5.28719L11.5458 0.74069C11.8806 0.405895 12.4234 0.405895 12.7582 0.74069C13.093 1.07549 13.093 1.6183 12.7582 1.95309L8.21166 6.4996L12.7582 11.0461C13.093 11.3809 13.093 11.9237 12.7582 12.2585C12.4234 12.5933 11.8806 12.5933 11.5458 12.2585L6.99926 7.712L2.45276 12.2585C2.11796 12.5933 1.57515 12.5933 1.24035 12.2585Z" fill="black"/>
</svg>
