<svg width="22" height="22" viewBox="0 0 22 22" fill="none" xmlns="http://www.w3.org/2000/svg">
<path opacity="0.54" fill-rule="evenodd" clip-rule="evenodd" d="M14.2102 12.8333H13.4823L13.2293 12.5822C14.1231 11.5399 14.6667 10.1888 14.6667 8.70833C14.6667 5.4175 11.9992 2.75 8.70833 2.75C5.4175 2.75 2.75 5.4175 2.75 8.70833C2.75 11.9992 5.4175 14.6667 8.70833 14.6667C10.1887 14.6667 11.539 14.124 12.5813 13.2312L12.8342 13.4823V14.2083L17.4157 18.7834L18.7825 17.4167L14.2102 12.8333ZM8.70832 12.8333C6.42949 12.8333 4.58332 10.9872 4.58332 8.70833C4.58332 6.43041 6.42949 4.58333 8.70832 4.58333C10.9862 4.58333 12.8333 6.43041 12.8333 8.70833C12.8333 10.9872 10.9862 12.8333 8.70832 12.8333Z" fill="black"/>
</svg>
