<svg width="30" height="29" viewBox="0 0 30 29" fill="none" xmlns="http://www.w3.org/2000/svg">
<path d="M13.2864 1.84744C14.0637 0.555804 15.9363 0.555803 16.7136 1.84744L20.1588 7.57218C20.4381 8.0362 20.8936 8.36714 21.4212 8.48934L27.9303 9.99687C29.399 10.337 29.9776 12.118 28.9894 13.2564L24.6095 18.302C24.2545 18.711 24.0805 19.2464 24.1273 19.786L24.705 26.4424C24.8354 27.9443 23.3204 29.045 21.9323 28.4569L15.7802 25.8505C15.2815 25.6393 14.7185 25.6393 14.2198 25.8505L8.06768 28.4569C6.67961 29.045 5.16465 27.9443 5.29499 26.4424L5.87268 19.786C5.91951 19.2464 5.74552 18.711 5.3905 18.302L1.01058 13.2564C0.0223646 12.118 0.601027 10.337 2.06965 9.99687L8.57883 8.48934C9.10643 8.36714 9.56193 8.0362 9.84119 7.57218L13.2864 1.84744Z" fill="#FFCE79"/>
</svg>
