<svg width="34" height="30" viewBox="0 0 34 30" fill="none" xmlns="http://www.w3.org/2000/svg">
<circle cx="15" cy="15" r="15" fill="#FDE7D0"/>
<path d="M14.0781 12.0625C14.3711 12.0625 14.6641 12.209 14.9082 12.4043C15.1035 12.6484 15.25 12.9414 15.25 13.2344V24.9531C15.25 25.2949 15.1035 25.5879 14.9082 25.7832C14.6641 26.0273 14.3711 26.125 14.0781 26.125H10.1719C9.83008 26.125 9.53711 26.0273 9.3418 25.7832C9.09766 25.5879 9 25.2949 9 24.9531V13.2344C9 12.9414 9.09766 12.6484 9.3418 12.4043C9.53711 12.209 9.83008 12.0625 10.1719 12.0625H14.0781ZM12.125 24.1719C12.418 24.1719 12.7109 24.0742 12.9551 23.8301C13.1504 23.6348 13.2969 23.3418 13.2969 23C13.2969 22.707 13.1504 22.4141 12.9551 22.1699C12.7109 21.9746 12.418 21.8281 12.125 21.8281C11.7832 21.8281 11.4902 21.9746 11.2949 22.1699C11.0508 22.4141 10.9531 22.707 10.9531 23C10.9531 23.3418 11.0508 23.6348 11.2949 23.8301C11.4902 24.0742 11.7832 24.1719 12.125 24.1719ZM27.75 5.08008C27.75 3.51758 27.3105 2.44336 26.4316 1.75977C25.8457 1.36914 25.1133 1.125 24.2344 1.125C23.7949 1.125 23.4043 1.51562 23.1113 2.19922C22.916 2.58984 22.7695 3.17578 22.5742 3.9082V3.95703C22.3789 4.68945 22.2324 5.22656 22.1348 5.51953C21.9395 6.10547 21.6465 6.54492 21.3535 6.83789C20.8164 7.32617 20.1816 8.15625 19.4004 9.2793C18.4238 10.6465 17.6426 11.6719 17.0078 12.3555C16.8613 12.4531 16.8125 12.5996 16.8125 12.7461V23.1953C16.8125 23.3906 16.8613 23.5371 16.959 23.6348C17.0566 23.7324 17.2031 23.7812 17.3984 23.7812C17.9355 23.7812 18.7656 24.0742 19.8887 24.5625C21.0117 25.0508 21.8906 25.3926 22.5742 25.5879C23.6484 25.9785 24.7227 26.125 25.7969 26.125H25.9434C27.3594 26.125 28.4336 26.0762 29.1172 25.9297C30.2402 25.7344 31.0215 25.3438 31.4609 24.709C31.8516 24.123 31.998 23.3906 31.8027 22.5117C32.1934 22.0723 32.4375 21.4863 32.6328 20.8027C32.7793 20.1191 32.7793 19.4844 32.584 18.8496C32.9746 18.3125 33.2188 17.6777 33.3164 16.9453C33.3652 16.2617 33.2676 15.5781 33.0234 14.9434H33.0723C33.3164 14.6504 33.5117 14.3086 33.707 13.8691C33.9023 13.4785 34 13.0391 34 12.5508C34 11.8184 33.707 11.1836 33.1211 10.5977C32.5352 10.0117 31.8516 9.71875 31.0703 9.71875H26.1387C26.1875 9.42578 26.3828 8.88867 26.7734 8.20508C27.0664 7.61914 27.3105 7.17969 27.457 6.83789C27.6523 6.25195 27.75 5.66602 27.75 5.08008Z" fill="#FAAF34"/>
</svg>
