<svg width="20" height="21" viewBox="0 0 20 21" fill="none" xmlns="http://www.w3.org/2000/svg">
<path d="M12.6423 11.7868C12.3086 11.7868 11.6669 13.0318 11.2818 13.0318C11.1791 13.0318 11.0893 12.9933 10.9994 12.942C10.2807 12.5826 9.65179 12.2104 9.06138 11.6456C8.57366 11.1836 8.0346 10.4905 7.75223 9.88728C7.71373 9.8231 7.68806 9.75893 7.68806 9.69475C7.68806 9.39955 8.57366 8.84766 8.57366 8.35993C8.57366 8.23158 7.91909 6.48605 7.82924 6.26786C7.70089 5.93415 7.63672 5.83147 7.29018 5.83147C7.12333 5.83147 6.96931 5.79297 6.81529 5.79297C6.54576 5.79297 6.3404 5.89565 6.14788 6.07533C5.53181 6.6529 5.22377 7.25614 5.1981 8.10324V8.20591C5.18527 9.09152 5.62165 9.97712 6.10938 10.6959C7.21317 12.3259 8.35547 13.7506 10.1908 14.5848C10.7427 14.8415 12.0134 15.3806 12.6295 15.3806C13.361 15.3806 14.5547 14.9185 14.8499 14.1998C14.9654 13.9046 15.0681 13.5452 15.0681 13.2243C15.0681 13.173 15.0681 13.096 15.0424 13.0318C14.9526 12.8778 12.8605 11.7868 12.6423 11.7868ZM10.0368 18.5893C8.47098 18.5893 6.91797 18.1144 5.60882 17.2545L2.50279 18.2427L3.51674 15.2522C2.51563 13.8789 1.97656 12.2232 1.97656 10.529C1.97656 6.08817 5.59598 2.46875 10.0368 2.46875C14.4777 2.46875 18.0971 6.08817 18.0971 10.529C18.0971 14.9699 14.4777 18.5893 10.0368 18.5893ZM10.0368 0.851561C4.69754 0.851561 0.359375 5.18973 0.359375 10.529C0.359375 12.2874 0.834263 14.0201 1.74554 15.5218L0 20.7199L5.35212 19C6.78962 19.7958 8.40681 20.2065 10.0368 20.2065C15.3761 20.2065 19.7143 15.8683 19.7143 10.529C19.7143 5.18973 15.3761 0.851561 10.0368 0.851561Z" fill="black"/>
</svg>
